<?xml version="1.0" encoding="utf-8"?>
<!-- Generator: Adobe Illustrator 25.0.0, SVG Export Plug-In . SVG Version: 6.00 Build 0)  -->
<svg version="1.1" id="Capa_1" xmlns="http://www.w3.org/2000/svg" xmlns:xlink="http://www.w3.org/1999/xlink" x="0px" y="0px"
	 viewBox="0 0 612 612" style="enable-background:new 0 0 612 612;" xml:space="preserve">
<style type="text/css">
	.st0{fill:#FFFFFF;}
</style>
<g>
	<g>
		<path class="st0" d="M450.66,589.85H22.15v-428.5c0-76.75,62.44-139.19,139.19-139.19h428.5v428.5
			C589.85,527.41,527.41,589.85,450.66,589.85z M60.79,551.21h389.87c55.44,0,100.55-45.11,100.55-100.55V60.79H161.34
			c-55.45,0-100.55,45.11-100.55,100.55C60.79,161.34,60.79,551.21,60.79,551.21z"/>
	</g>
	<g>
		<path class="st0" d="M138.35,221.37c-3.28,25.39-6.52,50.42-9.77,75.44c-5.09,39.17-10.13,78.32-15.28,117.47
			c-1.24,9.38,2.96,15.24,12.36,15.35c22.24,0.24,44.49,0.19,66.73-0.09c8.39-0.11,14.06-6.05,15.22-14.49
			c3.69-26.94,7.47-53.85,11.16-80.79c3.88-28.2,7.73-56.4,11.61-84.58c1.29-9.29,2.66-18.57,4.06-28.29
			C202.12,221.37,170.38,221.37,138.35,221.37z M181.37,270.71c-7.49,0.06-13.78-6.22-13.71-13.69c0.09-7.6,6.22-13.59,13.86-13.52
			c7.53,0.06,13.8,6.01,13.84,13.11C195.45,264.25,189.07,270.65,181.37,270.71z"/>
		<path class="st0" d="M254.08,221.35c-1.52,10.52-3.11,20.78-4.51,31.04c-4.4,32.49-8.67,65.01-13.07,97.51
			c-2.96,21.87-6.07,43.72-9.01,65.59c-1.12,8.24,3.97,13.91,12.36,14.12c3.99,0.11,8.01,0.06,12,0.09
			c40.5,0.24,73.3-28.8,78.75-68.98c5.19-38.2,11.05-76.3,16.61-114.44c1.2-8.18,2.38-16.33,3.63-24.94
			C318.3,221.35,286.36,221.35,254.08,221.35z M296.81,270.76c-7.13-0.19-13.41-6.83-13.18-13.89c0.26-7.77,6.29-13.54,14.04-13.41
			c7.68,0.13,13.76,5.95,13.76,13.16C311.41,264.32,304.54,270.97,296.81,270.76z"/>
		<path class="st0" d="M355.19,338.97c2.43-16.66,4.74-32.8,7.15-48.89c4.61-30.99,9.27-61.98,13.89-92.98
			c1.46-9.74,7.1-14.79,16.85-14.79c24.64-0.04,49.28,0.02,73.94-0.04c4.64,0,9.23,0.04,11.59,4.87c2.51,5.11,1.37,10.26-1.89,14.47
			c-4.79,6.18-10.13,11.93-15.32,17.81c-21.91,24.81-43.83,49.62-65.8,74.39C382.34,308.7,368.99,323.53,355.19,338.97z"/>
		<path class="st0" d="M140.09,209.98c0.79-5.49,1.22-10.9,2.43-16.16c1.52-6.74,7.49-11.55,14.21-11.57
			c27.54-0.06,55.09,0.04,82.63,0.09c0.62,0,1.24,0.15,2.19,0.28c-1.63,8.71-3.18,17.3-4.98,25.84c-0.19,0.9-2,2.06-3.05,2.06
			c-30.43,0.04-60.85-0.02-91.28-0.11C141.64,210.4,141.04,210.17,140.09,209.98z"/>
		<path class="st0" d="M255.82,210.1c0.92-5.54,1.5-10.92,2.77-16.16c1.78-7.3,7.51-11.59,15.09-11.63
			c24.34-0.09,48.66-0.11,72.99-0.06c6.8,0.02,10.11,3.86,9.14,10.45c-0.71,4.91-1.42,9.83-2.58,14.64
			c-0.32,1.29-2.3,3.11-3.52,3.11c-30.56,0.13-61.15,0.04-91.71,0C257.41,210.47,256.81,210.28,255.82,210.1z"/>
		<path class="st0" d="M497.47,416.06c-0.75-1.37-1.85-2.6-2.92-3.78c-12.3-13.67-24.66-27.3-36.94-40.99
			c-16.7-18.63-33.4-37.3-50.24-56.15c-5.11-5.71-14.08-5.69-19.14,0.06l-30.11,34.19c-2.47,2.81-3.61,6.55-3.09,10.26
			c4.96,34.88,30.03,62.89,65.85,68.02c22.77,3.26,46.25,1.74,69.41,1.91C497.6,429.63,501.01,422.54,497.47,416.06z"/>
	</g>
</g>
</svg>
